<?xml version="1.0" encoding="iso-8859-1"?>
<!-- Generator: Adobe Illustrator 19.0.0, SVG Export Plug-In . SVG Version: 6.00 Build 0)  -->
<svg version="1.1" id="Capa_1" xmlns="http://www.w3.org/2000/svg" xmlns:xlink="http://www.w3.org/1999/xlink" x="0px" y="0px"
	 viewBox="0 0 480 480" style="enable-background:new 0 0 480 480;" xml:space="preserve">
<g>
	<g>
		<g>
			<path d="M472,336c-4.418,0-8,3.582-8,8v64c-0.035,30.913-25.087,55.965-56,56H72c-30.913-0.035-55.965-25.087-56-56v-64
				c0-4.418-3.582-8-8-8s-8,3.582-8,8v64c0.048,39.744,32.256,71.951,72,72h336c39.744-0.049,71.952-32.256,72-72v-64
				C480,339.582,476.418,336,472,336z"/>
			<path d="M234.344,397.656c0.745,0.741,1.628,1.328,2.6,1.728c1.955,0.821,4.157,0.821,6.112,0c0.972-0.4,1.855-0.987,2.6-1.728
				l90.512-90.504c3.126-3.126,3.126-8.194,0-11.32c-3.126-3.126-8.194-3.126-11.32,0L248,372.688V8c0-4.418-3.582-8-8-8
				s-8,3.582-8,8v364.688l-76.848-76.856c-3.126-3.126-8.194-3.126-11.32,0c-3.126,3.126-3.126,8.194,0,11.32L234.344,397.656z"/>
		</g>
	</g>
</g>
<g>
</g>
<g>
</g>
<g>
</g>
<g>
</g>
<g>
</g>
<g>
</g>
<g>
</g>
<g>
</g>
<g>
</g>
<g>
</g>
<g>
</g>
<g>
</g>
<g>
</g>
<g>
</g>
<g>
</g>
</svg>
