<?xml version="1.0" encoding="iso-8859-1"?>
<!-- Generator: Adobe Illustrator 19.0.0, SVG Export Plug-In . SVG Version: 6.00 Build 0)  -->
<svg version="1.1" id="Capa_1" xmlns="http://www.w3.org/2000/svg" xmlns:xlink="http://www.w3.org/1999/xlink" x="0px" y="0px"
	 viewBox="0 0 482.199 482.199" style="enable-background:new 0 0 482.199 482.199;" xml:space="preserve">
<g>
	<g>
		<path d="M444.772,69.204c-0.066-0.066-0.133-0.133-0.199-0.199c-49.98-49.87-130.923-49.781-180.793,0.199l-22.664,22.664
			L218.46,69.212c-23.91-24.125-56.498-37.652-90.464-37.552c-33.923,0.012-66.454,13.484-90.452,37.46
			c-50.026,49.98-50.063,131.05-0.084,181.076l198,198c1.5,1.5,3.534,2.344,5.656,2.344c2.122,0,4.156-0.844,5.656-2.344l198-198
			C494.675,200.185,494.675,119.215,444.772,69.204z M433.46,238.884L241.116,431.228L48.796,238.86
			c-20.951-20.985-32.728-49.419-32.752-79.072C15.996,97.91,66.118,47.709,127.996,47.66c29.728-0.086,58.248,11.759,79.168,32.88
			l28.32,28.32c3.124,3.123,8.188,3.123,11.312,0l28.336-28.328c20.913-21.104,49.418-32.936,79.128-32.848
			c29.653,0.023,58.087,11.801,79.072,32.752C477.122,124.154,477.179,195.094,433.46,238.884z"/>
	</g>
</g>
<g>
</g>
<g>
</g>
<g>
</g>
<g>
</g>
<g>
</g>
<g>
</g>
<g>
</g>
<g>
</g>
<g>
</g>
<g>
</g>
<g>
</g>
<g>
</g>
<g>
</g>
<g>
</g>
<g>
</g>
</svg>
